<svg width="624" height="277" viewBox="0 0 624 277" fill="none" xmlns="http://www.w3.org/2000/svg">
<path d="M56.4167 260.574L38.0364 271.608" stroke="#FCB825" stroke-width="10.5" stroke-linecap="round"/>
<line x1="7" y1="-7" x2="37.4657" y2="-7" transform="matrix(-0.998634 0.0522438 -0.0582781 -0.9983 44.4049 183.521)" stroke="#FCB825" stroke-width="14" stroke-linecap="round"/>
<line x1="8.25" y1="-8.25" x2="42.9812" y2="-8.25" transform="matrix(-0.897805 -0.440394 0.480142 -0.877191 66.8542 109.676)" stroke="#FCB825" stroke-width="16.5" stroke-linecap="round"/>
<line x1="10" y1="-10" x2="43.8922" y2="-10" transform="matrix(-0.644221 -0.76484 0.798146 -0.602464 115.699 65.6108)" stroke="#FCB825" stroke-width="20" stroke-linecap="round"/>
<line x1="9.5" y1="-9.5" x2="44.7402" y2="-9.5" transform="matrix(-0.127543 -0.991833 0.993425 -0.114482 184.83 53.7972)" stroke="#FCB825" stroke-width="19" stroke-linecap="round"/>
<path d="M240.488 55.1566L259.697 21.453" stroke="#FCB825" stroke-width="20" stroke-linecap="round"/>
<path d="M233.574 148.4C233.574 155.767 230.064 162.093 223.044 167.38C216.024 172.667 208.007 175.31 198.994 175.31C189.98 175.31 182.7 173.1 177.154 168.68C171.694 164.173 168.964 159.537 168.964 154.77C168.964 150.003 170.307 147.62 172.994 147.62C175.074 147.62 177.24 148.66 179.494 150.74C181.747 152.82 184.26 154.9 187.034 156.98C189.894 159.06 193.1 160.1 196.654 160.1C200.207 160.1 204.237 158.627 208.744 155.68C213.25 152.733 215.504 150.263 215.504 148.27C215.504 146.277 213.034 142.94 208.094 138.26C203.24 133.58 198.344 128.77 193.404 123.83C188.55 118.803 186.124 114.947 186.124 112.26C186.124 109.487 186.6 106.497 187.554 103.29C188.594 100.083 189.85 97.8733 191.324 96.66C196.004 92.0667 202.027 88.1233 209.394 84.83C216.847 81.45 223.39 79.76 229.024 79.76C232.317 79.76 235.047 81.19 237.214 84.05C239.38 86.8233 240.464 89.7267 240.464 92.76C240.464 93.9733 239.467 94.97 237.474 95.75C235.567 96.4433 232.75 97.18 229.024 97.96C225.384 98.74 221.657 99.8667 217.844 101.34C209.004 104.633 204.584 107.407 204.584 109.66C204.584 110.7 206.1 112.607 209.134 115.38C212.167 118.067 215.46 120.927 219.014 123.96C222.654 126.907 225.99 130.677 229.024 135.27C232.057 139.777 233.574 144.153 233.574 148.4ZM260.322 175.31C258.589 175.31 256.075 173.967 252.782 171.28C249.575 168.507 247.972 165.777 247.972 163.09C247.972 156.763 248.882 145.843 250.702 130.33C252.522 114.817 253.432 99.91 253.432 85.61C253.432 81.97 254.559 80.15 256.812 80.15C259.932 80.15 263.659 81.8833 267.992 85.35C272.412 88.8167 274.622 92.2833 274.622 95.75C274.622 96.9633 273.192 104.373 270.332 117.98C267.472 131.5 265.825 142.377 265.392 150.61C269.552 142.203 274.449 135.183 280.082 129.55C285.802 123.917 290.482 121.1 294.122 121.1C296.722 121.1 298.412 126.863 299.192 138.39C299.539 142.723 300.232 146.71 301.272 150.35C302.312 153.903 303.742 155.68 305.562 155.68C308.942 155.68 311.932 152.083 314.532 144.89C317.219 137.61 318.562 130.113 318.562 122.4C318.562 105.673 313.969 97.31 304.782 97.31C302.095 97.31 299.582 95.9233 297.242 93.15C294.989 90.3767 293.862 87.9067 293.862 85.74C293.862 81.84 296.245 79.89 301.012 79.89C307.425 79.89 313.015 81.1033 317.782 83.53C322.635 85.87 326.405 89.12 329.092 93.28C334.465 101.513 337.152 111.653 337.152 123.7C337.152 131.847 335.722 139.907 332.862 147.88C330.002 155.767 326.015 162.31 320.902 167.51C315.875 172.71 310.502 175.31 304.782 175.31C294.209 175.31 288.185 166.34 286.712 148.4L282.682 154.12C273.149 168.247 265.695 175.31 260.322 175.31ZM360.442 175.31C358.709 175.31 356.369 173.533 353.422 169.98C350.476 166.34 349.002 163.697 349.002 162.05C349.002 160.403 351.126 148.357 355.372 125.91C359.706 103.377 361.959 89.5533 362.132 84.44C362.306 81.58 363.649 80.15 366.162 80.15C368.242 80.15 371.016 82.23 374.482 86.39C377.949 90.55 379.682 94.45 379.682 98.09C379.682 99.65 378.469 105.543 376.042 115.77C373.702 125.91 372.099 133.017 371.232 137.09C370.452 141.077 369.759 144.673 369.152 147.88C368.546 151 368.069 153.47 367.722 155.29C365.296 166.383 363.389 172.753 362.002 174.4C361.482 175.007 360.962 175.31 360.442 175.31ZM414.86 120.71C419.453 120.71 424.393 120.493 429.68 120.06C434.966 119.54 438.216 119.28 439.43 119.28C440.73 119.28 441.726 119.583 442.42 120.19C443.2 120.797 443.59 121.533 443.59 122.4C443.59 126.213 439.993 129.247 432.8 131.5C425.606 133.753 417.936 135.053 409.79 135.4C406.41 145.887 404.72 152.517 404.72 155.29C404.72 156.763 405.456 157.5 406.93 157.5C416.81 157.5 426.993 156.2 437.48 153.6C441.033 152.647 443.07 152.17 443.59 152.17C445.236 152.17 446.06 153.34 446.06 155.68C446.06 158.8 443.763 161.833 439.17 164.78C434.576 167.727 428.813 170.067 421.88 171.8C414.946 173.533 408.143 174.4 401.47 174.4C397.483 174.4 393.886 172.927 390.68 169.98C387.473 166.947 385.87 163.437 385.87 159.45C385.87 155.377 388.08 145.237 392.5 129.03C397.006 112.823 399.39 100.603 399.65 92.37C399.563 92.11 399.52 91.59 399.52 90.81C399.52 89.5967 399.693 88.6433 400.04 87.95C400.993 85.5233 403.636 84.0067 407.97 83.4C412.303 82.7067 420.103 82.36 431.37 82.36C450.09 82.36 459.45 84.44 459.45 88.6C459.45 91.2867 457.153 93.15 452.56 94.19C449.44 94.8833 445.15 95.5333 439.69 96.14C431.283 97.0933 423.786 98.48 417.2 100.3C417.2 106.193 416.16 112.997 414.08 120.71H414.86ZM516.491 87.3C519.264 88.2533 521.778 90.7667 524.031 94.84C526.284 98.9133 527.411 102.51 527.411 105.63C527.411 108.663 525.808 112.347 522.601 116.68C519.481 121.013 515.668 125.173 511.161 129.16C506.654 133.147 502.148 136.96 497.641 140.6C493.221 144.153 489.408 147.273 486.201 149.96C483.081 152.647 481.521 154.467 481.521 155.42C481.521 156.72 482.171 157.37 483.471 157.37C487.718 157.37 493.654 156.85 501.281 155.81C508.908 154.683 514.584 154.12 518.311 154.12C524.118 154.12 527.021 155.637 527.021 158.67C527.021 161.357 524.031 164.043 518.051 166.73C512.071 169.417 505.181 171.54 497.381 173.1C489.668 174.573 482.778 175.31 476.711 175.31C472.464 175.31 468.694 173.057 465.401 168.55C462.194 164.043 460.591 160.013 460.591 156.46C460.591 152.907 463.191 148.357 468.391 142.81C473.678 137.177 479.441 131.977 485.681 127.21C491.921 122.443 497.641 117.937 502.841 113.69C508.128 109.443 510.771 106.713 510.771 105.5C510.771 101.513 505.441 99.52 494.781 99.52C491.141 99.52 488.021 99.78 485.421 100.3C482.908 100.733 481.261 100.95 480.481 100.95C478.141 100.95 475.758 99.3467 473.331 96.14C470.904 92.9333 469.691 90.2033 469.691 87.95C469.691 85.6967 472.248 84.0067 477.361 82.88C480.134 82.2733 483.644 81.97 487.891 81.97C497.251 81.97 506.784 83.7467 516.491 87.3ZM577.524 124.48C579.084 124.48 581.814 120.753 585.714 113.3C589.701 105.847 593.731 98.4367 597.804 91.07C601.877 83.6167 604.911 79.89 606.904 79.89C609.851 79.89 612.277 81.2333 614.184 83.92C616.177 86.6067 617.174 89.8133 617.174 93.54C617.174 96.14 614.921 101.167 610.414 108.62C605.907 115.987 600.187 125.13 593.254 136.05C586.321 146.97 580.991 156.243 577.264 163.87C576.137 166.297 574.317 168.81 571.804 171.41C569.291 174.01 566.864 175.31 564.524 175.31C561.057 175.31 559.324 172.537 559.324 166.99C559.324 163.697 562.617 156.027 569.204 143.98C570.244 142.073 570.981 140.643 571.414 139.69C567.601 138.217 564.134 135.79 561.014 132.41C557.894 129.03 555.424 125.217 553.604 120.97C549.791 112.043 547.884 103.377 547.884 94.97C547.884 89.77 548.447 85.9567 549.574 83.53C550.787 81.1033 553.214 79.89 556.854 79.89C558.761 79.89 560.191 81.2333 561.144 83.92C562.097 86.52 562.964 90.29 563.744 95.23C564.524 100.17 565.607 104.547 566.994 108.36C568.467 112.087 570.244 115.727 572.324 119.28C574.491 122.747 576.224 124.48 577.524 124.48Z" fill="#151515"/>
<path d="M129.511 245.92C128.591 245.92 127.491 245.16 126.211 243.64C124.931 242.08 124.291 240.82 124.291 239.86C124.291 238.9 124.771 236.92 125.731 233.92C128.691 224.72 130.271 216.66 130.471 209.74C129.111 208.3 128.431 207.16 128.431 206.32C128.431 205 129.991 203.76 133.111 202.6C136.271 201.4 139.271 200.8 142.111 200.8C146.911 200.8 150.691 201.92 153.451 204.16C156.251 206.4 157.651 209.26 157.651 212.74C157.651 217.18 155.471 221.2 151.111 224.8C146.791 228.4 141.331 230.86 134.731 232.18C132.851 238.94 131.611 242.92 131.011 244.12C130.451 245.32 129.951 245.92 129.511 245.92ZM149.131 212.92C149.131 211.64 148.671 210.6 147.751 209.8C146.831 208.96 145.591 208.54 144.031 208.54C142.471 208.54 140.311 209.28 137.551 210.76C138.351 212.16 138.751 213.42 138.751 214.54C138.751 216.74 138.171 220 137.011 224.32C140.611 222.88 143.531 221.16 145.771 219.16C148.011 217.12 149.131 215.04 149.131 212.92ZM173.36 235.9C175.68 233.82 177.7 231.22 179.42 228.1C181.14 224.94 182 221.92 182 219.04C182 216.16 181.64 213.94 180.92 212.38C180.2 210.82 179.2 210.04 177.92 210.04C176.64 210.04 174.96 211.2 172.88 213.52C170.84 215.8 168.98 218.8 167.3 222.52C165.66 226.24 164.84 229.8 164.84 233.2C164.84 234.92 165.08 236.32 165.56 237.4C166.04 238.44 166.64 238.96 167.36 238.96C169.04 238.96 171.04 237.94 173.36 235.9ZM167.42 246.22C164.46 246.22 161.82 244.78 159.5 241.9C157.18 238.98 156.02 236.08 156.02 233.2C156.02 229.52 156.72 225.76 158.12 221.92C159.52 218.04 161.26 214.7 163.34 211.9C165.46 209.06 167.78 206.74 170.3 204.94C172.82 203.1 175.14 202.18 177.26 202.18C181.14 202.18 184.32 203.84 186.8 207.16C189.28 210.44 190.52 214.14 190.52 218.26C190.52 222.38 189.48 226.56 187.4 230.8C185.32 235 182.44 238.62 178.76 241.66C175.12 244.7 171.34 246.22 167.42 246.22ZM223.469 244.06C223.469 245.7 222.329 246.52 220.049 246.52C216.929 246.52 213.649 244.9 210.209 241.66C206.809 238.42 204.389 235.04 202.949 231.52C202.309 233.44 201.869 234.74 201.629 235.42C201.389 236.1 201.029 237.18 200.549 238.66C200.069 240.14 199.689 241.24 199.409 241.96C199.169 242.68 198.889 243.44 198.569 244.24C197.969 245.76 197.389 246.52 196.829 246.52C195.909 246.52 194.789 245.76 193.469 244.24C192.189 242.68 191.549 241.42 191.549 240.46C191.549 239.5 192.009 237.72 192.929 235.12C195.649 227.16 197.209 219.9 197.609 213.34C196.849 212.74 196.169 211.9 195.569 210.82C194.969 209.74 194.669 208.84 194.669 208.12C194.669 206.92 196.209 205.66 199.289 204.34C202.409 203.02 205.989 202.36 210.029 202.36C214.109 202.36 217.509 203.32 220.229 205.24C222.949 207.16 224.309 209.66 224.309 212.74C224.309 215.02 223.629 217.22 222.269 219.34C220.949 221.42 219.489 223.06 217.889 224.26C216.329 225.42 214.869 226.48 213.509 227.44C212.189 228.4 211.529 229.02 211.529 229.3C211.529 230.26 211.849 231.18 212.489 232.06C213.129 232.9 214.029 233.9 215.189 235.06C216.349 236.18 217.349 237.14 218.189 237.94C219.029 238.7 219.709 239.34 220.229 239.86C220.789 240.38 221.329 240.92 221.849 241.48C222.929 242.52 223.469 243.38 223.469 244.06ZM215.069 213.34C215.069 211.66 213.429 210.82 210.149 210.82C208.589 210.82 206.729 211.26 204.569 212.14C205.569 213.66 206.069 215.06 206.069 216.34C206.069 218.66 205.749 221.22 205.109 224.02C205.549 223.7 206.369 223.14 207.569 222.34C208.769 221.5 209.689 220.84 210.329 220.36C211.009 219.84 211.769 219.18 212.609 218.38C214.249 216.82 215.069 215.14 215.069 213.34ZM254.224 223.72C255.824 223.72 256.964 223.88 257.644 224.2C258.364 224.48 258.724 225.02 258.724 225.82C258.724 226.9 256.984 228 253.504 229.12C253.584 232.16 253.624 235.08 253.624 237.88C253.624 240.64 253.404 242.72 252.964 244.12C252.524 245.48 251.824 246.16 250.864 246.16C249.904 246.16 249.144 245.68 248.584 244.72C248.064 243.72 247.624 242.1 247.264 239.86C246.944 237.62 246.604 234.66 246.244 230.98C242.164 231.9 239.224 232.64 237.424 233.2C234.304 241.84 232.224 246.16 231.184 246.16C230.344 246.16 229.224 245.6 227.824 244.48C226.464 243.36 225.784 242.2 225.784 241C225.784 240.32 226.564 238.2 228.124 234.64C227.444 234.2 226.844 233.58 226.324 232.78C225.844 231.94 225.604 231.14 225.604 230.38C225.604 229.06 227.584 227.8 231.544 226.6C231.864 225.8 232.184 224.9 232.504 223.9C232.864 222.86 233.724 220.46 235.084 216.7C236.484 212.94 237.584 209.8 238.384 207.28C238.744 206.08 239.984 204.96 242.104 203.92C244.264 202.88 245.944 202.36 247.144 202.36C248.544 202.36 249.784 204.3 250.864 208.18C251.984 212.06 252.764 217.24 253.204 223.72H254.224ZM240.364 224.74C241.564 224.58 243.304 224.38 245.584 224.14C245.464 222.98 245.264 221 244.984 218.2C244.744 215.4 244.564 213.38 244.444 212.14C243.764 214.38 242.404 218.58 240.364 224.74ZM291.117 202C292.277 202 293.557 202.6 294.957 203.8C296.397 205 297.117 205.98 297.117 206.74C297.117 209.26 296.517 213.64 295.317 219.88C294.157 226.08 292.657 232.02 290.817 237.7C288.977 243.38 287.317 246.22 285.837 246.22C285.237 246.22 284.457 245.9 283.497 245.26C282.537 244.58 281.897 243.8 281.577 242.92C281.257 242 280.637 240.12 279.717 237.28C277.597 230.76 275.597 225.36 273.717 221.08C273.437 222.28 273.057 223.98 272.577 226.18C272.137 228.38 271.777 230.12 271.497 231.4C271.217 232.64 270.877 234.16 270.477 235.96C270.077 237.72 269.717 239.12 269.397 240.16C269.117 241.2 268.797 242.24 268.437 243.28C267.797 245.24 267.197 246.22 266.637 246.22C265.837 246.22 264.797 245.5 263.517 244.06C262.237 242.58 261.597 241.32 261.597 240.28C261.597 239.2 262.737 233.62 265.017 223.54C267.337 213.46 268.597 207.14 268.797 204.58C268.917 203.06 269.377 202.3 270.177 202.3C270.857 202.3 271.717 202.7 272.757 203.5C273.837 204.3 274.757 205.28 275.517 206.44C276.317 207.56 277.737 211.26 279.777 217.54C281.817 223.82 283.437 228.32 284.637 231.04C286.197 226.4 287.637 219.4 288.957 210.04C289.477 206.32 289.817 204.06 289.977 203.26C290.137 202.42 290.517 202 291.117 202ZM310.609 221.02C312.729 221.02 315.009 220.92 317.449 220.72C319.889 220.48 321.389 220.36 321.949 220.36C322.549 220.36 323.009 220.5 323.329 220.78C323.689 221.06 323.869 221.4 323.869 221.8C323.869 223.56 322.209 224.96 318.889 226C315.569 227.04 312.029 227.64 308.269 227.8C306.709 232.64 305.929 235.7 305.929 236.98C305.929 237.66 306.269 238 306.949 238C311.509 238 316.209 237.4 321.049 236.2C322.689 235.76 323.629 235.54 323.869 235.54C324.629 235.54 325.009 236.08 325.009 237.16C325.009 238.6 323.949 240 321.829 241.36C319.709 242.72 317.049 243.8 313.849 244.6C310.649 245.4 307.509 245.8 304.429 245.8C302.589 245.8 300.929 245.12 299.449 243.76C297.969 242.36 297.229 240.74 297.229 238.9C297.229 237.02 298.249 232.34 300.289 224.86C302.369 217.38 303.469 211.74 303.589 207.94C303.549 207.82 303.529 207.58 303.529 207.22C303.529 206.66 303.609 206.22 303.769 205.9C304.209 204.78 305.429 204.08 307.429 203.8C309.429 203.48 313.029 203.32 318.229 203.32C326.869 203.32 331.189 204.28 331.189 206.2C331.189 207.44 330.129 208.3 328.009 208.78C326.569 209.1 324.589 209.4 322.069 209.68C318.189 210.12 314.729 210.76 311.689 211.6C311.689 214.32 311.209 217.46 310.249 221.02H310.609ZM334.115 246.22H333.995C333.115 246.22 332.015 245.42 330.695 243.82C329.375 242.18 328.715 240.76 328.715 239.56C328.715 238.32 329.875 232.84 332.195 223.12C334.555 213.4 335.735 207.26 335.735 204.7C335.735 203.1 336.315 202.3 337.475 202.3C338.435 202.3 339.595 203.26 340.955 205.18C342.315 207.06 342.995 208.86 342.995 210.58C342.995 211.62 342.475 214.28 341.435 218.56C344.715 214.2 347.795 210.56 350.675 207.64C353.555 204.68 355.515 203.2 356.555 203.2C357.635 203.2 358.715 203.66 359.795 204.58C360.875 205.46 361.415 206.24 361.415 206.92C361.415 207.56 360.395 208.84 358.355 210.76C356.315 212.68 353.795 215.12 350.795 218.08C347.795 221.04 345.475 223.8 343.835 226.36C343.835 229.44 345.615 232.54 349.175 235.66C350.255 236.58 351.695 237.54 353.495 238.54C355.295 239.5 356.695 240.34 357.695 241.06C358.735 241.74 359.255 242.44 359.255 243.16C359.255 245.2 357.815 246.22 354.935 246.22C352.055 246.22 348.955 245.06 345.635 242.74C342.315 240.38 339.835 237.26 338.195 233.38C337.155 236.34 336.515 238.5 336.275 239.86C336.035 241.18 335.855 242.06 335.735 242.5C335.655 242.94 335.575 243.3 335.495 243.58C335.415 243.82 335.335 244.1 335.255 244.42C335.175 244.74 335.095 245 335.015 245.2C334.935 245.36 334.855 245.52 334.775 245.68C334.535 246.04 334.315 246.22 334.115 246.22Z" fill="#0D0D0D"/>
</svg>
