<svg width="129" height="121" viewBox="0 0 129 121" fill="none" xmlns="http://www.w3.org/2000/svg">
<path d="M66.1051 113.427C77.7174 113.319 87.521 106.408 97.5332 100.552C108.75 93.9911 123.843 89.7822 127.685 77.4096C131.525 65.0421 121.33 53.1505 115.903 41.3868C111.179 31.1475 107.645 19.732 98.2069 13.5113C88.9522 7.41117 77.1511 7.47703 66.1051 8.56311C55.952 9.56141 47.3022 14.6175 38.3024 19.4013C27.6333 25.0724 15.1895 28.7145 8.87539 38.9831C1.75102 50.5694 -2.97405 65.5885 2.16364 78.1734C7.24726 90.6259 22.437 94.6248 34.2494 101.137C44.4614 106.768 54.4318 113.535 66.1051 113.427Z" fill="#FFBE00"/>
<path d="M116.005 50.181C113.201 47.1825 109.238 45.5218 104.836 45.5218H94.7096V40.2166C94.7096 40.1244 94.7096 40.0321 94.6864 39.9629C94.6864 39.9168 94.6632 39.8707 94.6632 39.8476C94.6632 39.8015 94.6401 39.7553 94.6401 39.7092C94.6401 39.6631 94.6169 39.6169 94.6169 39.5708C94.6169 39.5247 94.5937 39.4785 94.5937 39.4555C94.5705 39.4093 94.5705 39.3632 94.5474 39.3171C94.5242 39.2709 94.5242 39.2248 94.501 39.2017C94.4779 39.1556 94.4547 39.1326 94.4547 39.0864C94.4315 39.0403 94.4083 38.9942 94.3852 38.9711C94.362 38.925 94.3388 38.9019 94.3157 38.8558C94.2925 38.8096 94.2693 38.7635 94.2461 38.7404C94.223 38.6943 94.1998 38.6712 94.1534 38.6251C94.1303 38.602 94.1071 38.5559 94.0839 38.5328C94.0376 38.4636 93.9681 38.3945 93.9217 38.3483C93.9217 38.3483 93.9217 38.3483 93.8986 38.3253L83.4248 27.8073C82.8919 27.2768 82.1967 27 81.4552 27H52.7451C52.0036 27 51.3084 27.2999 50.7755 27.8073L40.3017 38.233C40.3017 38.233 40.3018 38.233 40.2786 38.2561C40.2091 38.3253 40.1627 38.3714 40.1164 38.4406C40.0932 38.4637 40.07 38.5098 40.0469 38.5328C40.0237 38.579 39.9773 38.602 39.9542 38.6482C39.931 38.6943 39.9078 38.7404 39.8847 38.7635C39.8615 38.8096 39.8383 38.8327 39.8151 38.8788C39.792 38.925 39.7688 38.9711 39.7456 38.9942C39.7225 39.0403 39.6993 39.0634 39.6993 39.1095C39.6761 39.1556 39.6761 39.2018 39.6529 39.2248C39.6298 39.2709 39.6298 39.3171 39.6066 39.3632C39.5834 39.4093 39.5834 39.4555 39.5834 39.4785C39.5602 39.5247 39.5602 39.5708 39.5602 39.6169C39.5602 39.6631 39.5371 39.7092 39.5371 39.7553C39.5371 39.8015 39.5139 39.8476 39.5139 39.8707C39.5139 39.9629 39.4907 40.0552 39.4907 40.1244V83.88C39.4907 85.4023 40.742 86.6479 42.2714 86.6479H49.5937C50.5438 90.3615 53.9501 93.1293 57.9588 93.1293C61.9676 93.1293 65.3738 90.3615 66.3239 86.6479H91.9058H95.6596C96.6097 90.3615 100.016 93.1293 104.025 93.1293C108.057 93.1293 111.44 90.3615 112.39 86.6479H117.719C119.249 86.6479 120.5 85.4023 120.5 83.88V63.3054C120.523 57.9311 118.971 53.3641 116.005 50.181ZM85.2322 37.4488H69.5448V32.5588H80.2966L85.2322 37.4488ZM53.9037 32.5358H63.9835V37.4257H48.9912L53.9037 32.5358ZM45.052 42.9845H89.1483V48.2896V81.1813H66.0227C65.9763 81.1813 65.9531 81.1813 65.9068 81.1813C64.586 78.1366 61.5273 75.9915 57.982 75.9915C54.4135 75.9915 51.3548 78.1366 50.034 81.2044C49.9181 81.1813 49.8023 81.1813 49.6632 81.1813H45.052V42.9845ZM57.982 87.6628C56.2904 87.6628 54.9001 86.2788 54.9001 84.595C54.9001 82.9112 56.2904 81.5273 57.982 81.5273C59.6735 81.5273 61.0639 82.9112 61.0639 84.595C61.0639 86.2788 59.6735 87.6628 57.982 87.6628ZM104.048 87.6628C102.356 87.6628 100.966 86.2788 100.966 84.595C100.966 82.9112 102.356 81.5273 104.048 81.5273C105.739 81.5273 107.13 82.9112 107.13 84.595C107.13 86.2788 105.763 87.6628 104.048 87.6628ZM114.962 81.1813H111.996C110.675 78.1366 107.616 75.9915 104.071 75.9915C100.526 75.9915 97.467 78.1366 96.1462 81.1813H94.7327V51.0575H104.859C111.208 51.0575 114.985 55.6707 114.985 63.3977V81.1813H114.962Z" fill="black"/>
<path d="M34.4624 48.5433H19.2384C17.7091 48.5433 16.4578 49.7889 16.4578 51.3112C16.4578 52.8336 17.7091 54.0791 19.2384 54.0791H34.4624C35.9918 54.0791 37.243 52.8336 37.243 51.3112C37.243 49.7889 35.9918 48.5433 34.4624 48.5433Z" fill="black"/>
<path d="M34.4624 59.3151H10.7806C9.25129 59.3151 8 60.5606 8 62.0829C8 63.6053 9.25129 64.8508 10.7806 64.8508H34.4624C35.9918 64.8508 37.243 63.6053 37.243 62.0829C37.243 60.5606 35.9918 59.3151 34.4624 59.3151Z" fill="black"/>
<path d="M34.4624 70.0867H19.2384C17.7091 70.0867 16.4578 71.3323 16.4578 72.8546C16.4578 74.3769 17.7091 75.6225 19.2384 75.6225H34.4624C35.9918 75.6225 37.243 74.3769 37.243 72.8546C37.243 71.3323 35.9918 70.0867 34.4624 70.0867Z" fill="black"/>
</svg>
