<svg width="130" height="121" viewBox="0 0 130 121" fill="none" xmlns="http://www.w3.org/2000/svg">
<path d="M64.7002 109.48C73.635 108.578 81.3015 104.514 89.5835 101.058C100.946 96.3156 115.966 96.1687 122.09 85.5274C128.292 74.7508 133.5 50 125.5 35C117 26 104.5 29 91.5 26C81 22.5 71 12.5 58 11C45 11 39.7958 12.0335 28.9666 18.0084C17.1631 24.5209 5.76354 33.7839 1.92485 46.6625C-1.87921 59.4249 2.42845 73.3878 9.00479 84.9794C14.7954 95.1861 25.0896 101.74 35.8605 106.478C44.9231 110.465 54.8426 110.474 64.7002 109.48Z" fill="#FFBE00"/>
<path d="M25.8037 26.0425V40.4401C25.8037 41.9463 25.1356 43.2993 24.08 44.2236V26.0425H17.4021V44.2238C16.3462 43.2995 15.6781 41.9465 15.6781 40.4401V26.0425H9V40.4401C9 45.7298 12.5499 50.2074 17.4021 51.6427V55.4265C14.6954 56.6834 12.8143 59.4164 12.8143 62.5802V88.2852C12.8143 92.636 16.3703 96.1757 20.7411 96.1757C25.1119 96.1757 28.6679 92.636 28.6679 88.2852V62.5802C28.6679 59.4166 26.7868 56.6834 24.0802 55.4265V51.6427C28.9322 50.2069 32.482 45.7296 32.482 40.4399V26.0425H25.8037ZM21.9896 88.2854C21.9896 88.9708 21.4294 89.5284 20.7409 89.5284C20.0522 89.5284 19.4922 88.9708 19.4922 88.2854V62.5802C19.4922 61.8948 20.0524 61.3372 20.7409 61.3372C21.4294 61.3372 21.9896 61.8948 21.9896 62.5802V88.2854Z" fill="black"/>
<path d="M121.083 33.9179C121.083 29.5754 117.534 26.0427 113.171 26.0427C108.809 26.0427 105.26 29.5754 105.26 33.9179V53.5764C105.26 55.2715 105.802 56.8418 106.721 58.1281C105.802 59.4144 105.26 60.9846 105.26 62.6797V88.3002C105.26 92.6427 108.809 96.1754 113.171 96.1754C117.534 96.1754 121.083 92.6427 121.083 88.3002V62.6797C121.083 60.9846 120.54 59.4144 119.621 58.1281C120.54 56.8418 121.083 55.2715 121.083 53.5764V33.9179ZM114.405 88.3002C114.405 88.9773 113.852 89.5281 113.171 89.5281C112.491 89.5281 111.938 88.9773 111.938 88.3002V62.6797C111.938 62.0027 112.491 61.4518 113.171 61.4518C113.852 61.4518 114.405 62.0027 114.405 62.6797V88.3002ZM114.405 53.5764C114.405 54.2534 113.852 54.8043 113.171 54.8043C112.491 54.8043 111.938 54.2534 111.938 53.5764V33.9179C111.938 33.2408 112.491 32.6899 113.171 32.6899C113.852 32.6899 114.405 33.2408 114.405 33.9179V53.5764Z" fill="black"/>
<path d="M66.9486 24.0001C47.3129 24.0001 31.3376 39.9017 31.3376 59.4476C31.3376 78.9934 47.3124 94.895 66.9486 94.895C86.5848 94.895 102.559 78.9934 102.559 59.4476C102.559 39.9017 86.5844 24.0001 66.9486 24.0001ZM66.9486 88.2476C50.995 88.2476 38.0157 75.3278 38.0157 59.4473C38.0157 43.5669 50.995 30.6471 66.9486 30.6471C82.9023 30.6471 95.8816 43.5669 95.8816 59.4473C95.8816 75.3278 82.9023 88.2476 66.9486 88.2476Z" fill="black"/>
<path d="M66.9486 35.0789C53.4496 35.0789 42.4675 46.0106 42.4675 59.4475C42.4675 72.8843 53.4496 83.8161 66.9486 83.8161C80.4474 83.8161 91.4295 72.8843 91.4295 59.4475C91.4295 46.0106 80.4474 35.0789 66.9486 35.0789ZM66.9486 77.1686C57.1319 77.1686 49.1454 69.2189 49.1454 59.4473C49.1454 49.6756 57.1317 41.7259 66.9486 41.7259C76.7655 41.7259 84.7516 49.6756 84.7516 59.4473C84.7516 69.2189 76.7653 77.1686 66.9486 77.1686Z" fill="black"/>
</svg>
