<svg width="126" height="121" viewBox="0 0 126 121" fill="none" xmlns="http://www.w3.org/2000/svg">
<g clip-path="url(#clip0_1_158)">
<path d="M62.451 120.689C74.1209 121.952 85.6935 118.662 96.1554 113.578C107.42 108.105 119.872 101.822 124.412 90.5817C128.91 79.4452 121.295 67.6327 119.483 55.826C117.677 44.053 121.29 30.7883 113.78 21.2793C106.177 11.6511 92.4074 9.23046 80.1972 6.07959C68.2129 2.98701 55.1747 -1.56839 43.8252 3.22722C32.682 7.9357 29.7997 21.3534 22.3321 30.5299C15.385 39.067 3.25151 44.6191 1.46288 55.2844C-0.328839 65.9681 7.41837 75.7393 13.1872 85.0598C18.4445 93.554 25.0895 100.816 33.3349 106.779C42.1607 113.162 51.4393 119.497 62.451 120.689Z" fill="#FFBE00"/>
<path d="M28.7135 14.5952V106.921H101.708V14.5952H28.7135ZM96.1217 101.436H34.2998V20.0801H96.1218L96.1217 101.436Z" fill="black"/>
<path d="M80.9153 40.814C79.7513 34.3715 74.5659 29.2803 68.0042 28.1372V25.0447H62.4179V28.1372C55.8562 29.2803 50.671 34.3715 49.5068 40.814H47.037V46.2989H49.2571H81.1654H83.3855V40.814H80.9153ZM55.2252 40.8141C56.4474 36.5286 60.4612 33.3769 65.211 33.3769C69.9607 33.3769 73.9743 36.5286 75.1968 40.8141H55.2252Z" fill="black"/>
<path d="M54.9693 53.5055H38.458V58.9904H54.9693V53.5055Z" fill="black"/>
<path d="M54.9693 62.6468H38.458V68.1317H54.9693V62.6468Z" fill="black"/>
<path d="M54.9693 71.7886H38.458V77.2735H54.9693V71.7886Z" fill="black"/>
<path d="M54.9693 80.9293H38.458V86.4142H54.9693V80.9293Z" fill="black"/>
<path d="M54.9693 90.0718H38.458V95.5567H54.9693V90.0718Z" fill="black"/>
<path d="M91.9635 53.5055H60.5554V58.9904H91.9635V53.5055Z" fill="black"/>
<path d="M91.9635 62.6468H60.5554V68.1317H91.9635V62.6468Z" fill="black"/>
<path d="M91.9635 71.7886H60.5554V77.2735H91.9635V71.7886Z" fill="black"/>
<path d="M91.9635 80.9293H60.5554V86.4142H91.9635V80.9293Z" fill="black"/>
<path d="M91.9635 90.0718H60.5554V95.5567H91.9635V90.0718Z" fill="black"/>
</g>
<defs>
<clipPath id="clip0_1_158">
<rect width="125.459" height="120.922" fill="white" transform="translate(0.200012 0.0372314)"/>
</clipPath>
</defs>
</svg>
