<svg width="107" height="122" viewBox="0 0 107 122" fill="none" xmlns="http://www.w3.org/2000/svg">
<path fill-rule="evenodd" clip-rule="evenodd" d="M17.5154 35.8096C20.8375 32.9984 25.4365 31.6719 29.6286 29.9121C41.7561 24.821 40.4221 17.0905 51.6186 10.603C57.1595 7.39246 75.574 5.52082 82.0052 6.71721C86.481 7.54985 90.445 9.33346 92.075 15.6014C92.4967 22.407 89.48 26.227 87.1321 33.3962C82.6516 47.0773 86.2591 61.6728 92.918 74.4341C94.3742 77.2247 95.985 79.9867 96.7697 82.9787C98.5936 89.9333 95.6123 97.52 90.1085 103.082C84.6047 108.644 76.8362 112.34 68.7416 114.562C58.8204 117.286 48.1834 117.945 38.0366 116.464C32.8946 115.714 27.8022 114.391 23.5181 111.925C19.234 109.458 15.8087 105.748 14.7963 101.404C13.2717 94.8633 17.263 88.203 17.6242 81.4989C17.7849 78.5156 17.2218 75.5587 16.6347 72.6317C15.7637 68.289 14.8355 63.9558 13.8504 59.6333C12.9221 55.5597 11.9385 51.4459 12.1702 47.2748C12.4019 43.1037 13.9881 38.7945 17.5154 35.8096Z" fill="#FCB825"/>
<path d="M94.3975 99.7368L88.4632 31.8413C88.3565 30.4977 87.2465 29.4792 85.9016 29.4792H73.3926C73.3712 18.1885 64.3203 9 53.1988 9C42.0772 9 33.0263 18.1885 33.005 29.4792H20.4959C19.1724 29.4792 18.0624 30.4977 17.9343 31.8413L12 99.7368C12 99.8235 12 99.8885 12 99.9752C12 107.538 18.8522 113.693 27.2628 113.693H79.1348C87.5453 113.693 94.3975 107.538 94.3975 99.9752C94.3975 99.8885 94.3975 99.8235 94.3975 99.7368ZM53.1988 14.2011C61.5026 14.2011 68.2481 21.0491 68.2694 29.4792H38.1281C38.1495 21.0491 44.895 14.2011 53.1988 14.2011ZM79.1348 108.47H27.2628C21.7127 108.47 17.1872 104.721 17.1232 100.062L22.844 34.6802H33.005V43.8038C33.005 45.234 34.1577 46.4043 35.5665 46.4043C36.9754 46.4043 38.1281 45.234 38.1281 43.8038V34.6802H68.2694V43.8038C68.2694 45.234 69.4221 46.4043 70.831 46.4043C72.2399 46.4043 73.3926 45.234 73.3926 43.8038V34.6802H83.5535L89.2744 100.084C89.2103 104.721 84.6849 108.47 79.1348 108.47Z" fill="black"/>
</svg>
